# xmcd CD database file
#
# Track frame offsets:
#	150
#	14380
#	28557
#	41284
#	54391
#	66376
#	76428
#	90002
#	100353
#	113102
#	123391
#	133267
#	145214
#	157425
#	169111
#	178657
#	191326
#	201407
#	212956
#	225122
#	234826
#	250051
#	261729
#	274840
#	286963
#	297861
#	308903
#	320107
#	329225
#
# Disc length: 4567 seconds
#
# Revision: 2
# Processed by: cddbd v1.5.2PL0 Copyright (c) Steve Scherf et al.
# Submitted via: jetAudio 7
#
DISCID=b611d51d
DTITLE=Chet Atkins and Jerry Reed - Me And Jerry and Me And Chet ... Plus
DYEAR=1900
DGENRE=Country
TTITLE0=Tennessee Stud
TTITLE1=Bridge Over Troubled Water
TTITLE2=MacArthur Park
TTITLE3=Old Man River
TTITLE4=Nut Sundae
TTITLE5=Cannonball Rag
TTITLE6=Wreck Of The John B
TTITLE7=Stump Water
TTITLE8=The January-February March
TTITLE9=Something
TTITLE10=Jerry's Breakdown
TTITLE11=Limehouse Blues
TTITLE12=Liebestraum
TTITLE13=Serenade To Summertime
TTITLE14=Nashtown Ville
TTITLE15=Mystery Train
TTITLE16=The Mad Russian
TTITLE17=Flying South
TTITLE18=Good Stuff
TTITLE19=All I Ever Need Is You
TTITLE20=I Saw The Light
TTITLE21=I'll Say She Does
TTITLE22=East Wind
TTITLE23=Down Home
TTITLE24=Baby's Coming Home
TTITLE25=Early Dawn
TTITLE26=Steeplechase Lane
TTITLE27=The Claw
TTITLE28=Alabama Jubilee
EXTD=Raven Records RVCD-301 (12/04/2009) www.ravenrecords.com.au
EXTT0=
EXTT1=
EXTT2=
EXTT3=
EXTT4=
EXTT5=
EXTT6=
EXTT7=
EXTT8=
EXTT9=
EXTT10=
EXTT11=
EXTT12=
EXTT13=
EXTT14=
EXTT15=
EXTT16=
EXTT17=
EXTT18=
EXTT19=
EXTT20=
EXTT21=
EXTT22=
EXTT23=
EXTT24=
EXTT25=
EXTT26=
EXTT27=
EXTT28=
PLAYORDER=
